<?xml version="1.0" encoding="UTF-8"?>
<svg id="Ebene_2" data-name="Ebene 2" xmlns="http://www.w3.org/2000/svg" viewBox="0 0 285.78 118.77">
  <defs>
    <style>
      .cls-1 {
        fill: #fff;
      }

      .cls-2 {
        fill: #b8b2d9;
      }
    </style>
  </defs>
  <g id="Ebene_1-2" data-name="Ebene 1">
    <g>
      <path class="cls-1" d="M31.57,54.29c-17.41,0-31.57,14.16-31.57,31.57s14.16,31.57,31.57,31.57,31.57-14.16,31.57-31.57-14.16-31.57-31.57-31.57ZM31.57,101.15c-8.43,0-15.29-6.86-15.29-15.29s6.86-15.29,15.29-15.29,15.29,6.86,15.29,15.29-6.86,15.29-15.29,15.29Z"/>
      <path class="cls-1" d="M63.13,50.92c0-17.41-14.16-31.57-31.57-31.57S0,33.52,0,50.92l.06,11.17c.46-.61.91-1.23,1.35-1.84.01.04.02.08.03.12,4.01-4.73,9.11-8.51,14.91-10.94.76-7.73,7.29-13.79,15.21-13.79s14.45,6.06,15.21,13.79c1.23.51,2.41,1.1,3.57,1.73.39.21.77.43,1.15.65.28.16.56.33.83.51.35.22.7.44,1.05.67.3.2.6.41.9.62.3.21.61.43.91.65.34.25.67.52,1,.78.24.19.49.39.73.59.4.33.78.68,1.16,1.02.16.15.33.29.49.44.49.46.97.94,1.44,1.42.05.05.1.1.15.15.53.56,1.04,1.13,1.54,1.71,0,0,0,0,0,0,.49.57.96,1.16,1.41,1.76v-9.88c.02-.44.03-.88.03-1.33Z"/>
      <path class="cls-2" d="M17.42,22.72v-5.35C17.42,7.77,9.65,0,.06,0h0v49.07c.67-11.53,7.56-21.42,17.36-26.35Z"/>
      <path class="cls-2" d="M49.78,111.62c2.87,4.31,7.76,7.15,13.32,7.15h0v-31.74c-.37,10.15-5.55,19.08-13.32,24.6Z"/>
      <g>
        <path class="cls-2" d="M117.91,77.14c-2.01,0-3.81-.38-5.39-1.14-1.58-.76-2.84-1.8-3.77-3.1-.93-1.3-1.4-2.77-1.4-4.41,0-2.64,1.08-4.74,3.24-6.28,2.16-1.54,5.03-2.6,8.6-3.16l6.98-1.06v-.78c0-1.34-.28-2.36-.84-3.07-.56-.71-1.58-1.06-3.07-1.06-1.04,0-1.89.21-2.54.61-.65.41-1.16.97-1.54,1.67-.33.48-.8.73-1.4.73h-6.25c-.41,0-.73-.12-.95-.36s-.32-.53-.28-.87c0-.67.25-1.44.75-2.32.5-.87,1.28-1.74,2.32-2.6,1.04-.86,2.38-1.56,4.02-2.12,1.64-.56,3.61-.84,5.92-.84s4.49.28,6.2.84c1.71.56,3.1,1.34,4.16,2.35,1.06,1,1.85,2.19,2.37,3.55.52,1.36.78,2.86.78,4.5v16.98c0,.41-.14.75-.42,1.01s-.61.39-.98.39h-6.48c-.41,0-.75-.13-1.01-.39s-.39-.6-.39-1.01v-1.95c-.48.71-1.14,1.36-1.95,1.95-.82.6-1.78,1.07-2.88,1.42-1.1.35-2.37.53-3.83.53ZM120.54,70.78c1.08,0,2.06-.23,2.93-.7.88-.46,1.56-1.19,2.07-2.18s.75-2.22.75-3.71v-.78l-4.75.84c-1.75.3-3.02.75-3.83,1.37s-1.2,1.33-1.2,2.15c0,.63.19,1.17.56,1.62.37.45.86.79,1.45,1.03.59.24,1.26.36,2.01.36Z"/>
        <path class="cls-2" d="M143.54,76.58c-.41,0-.75-.13-1-.39-.26-.26-.39-.6-.39-1.01v-36.86c0-.41.13-.74.39-1s.59-.39,1-.39h7.15c.41,0,.74.13,1,.39.26.26.39.6.39,1v12.45c1-1.15,2.24-2.08,3.71-2.76s3.17-1.03,5.11-1.03c2.16,0,4.08.48,5.78,1.45,1.69.97,3.02,2.39,3.99,4.27.97,1.88,1.45,4.18,1.45,6.9v15.58c0,.41-.13.75-.39,1.01-.26.26-.6.39-1,.39h-7.2c-.37,0-.7-.13-.98-.39-.28-.26-.42-.6-.42-1.01v-15.25c0-1.75-.42-3.1-1.26-4.05-.84-.95-2.08-1.42-3.71-1.42-1.53,0-2.75.47-3.69,1.42-.93.95-1.4,2.3-1.4,4.05v15.25c0,.41-.13.75-.39,1.01s-.6.39-1,.39h-7.15Z"/>
        <path class="cls-2" d="M187.16,77.14c-2.01,0-3.81-.38-5.39-1.14-1.58-.76-2.84-1.8-3.77-3.1-.93-1.3-1.4-2.77-1.4-4.41,0-2.64,1.08-4.74,3.24-6.28,2.16-1.54,5.03-2.6,8.6-3.16l6.98-1.06v-.78c0-1.34-.28-2.36-.84-3.07-.56-.71-1.58-1.06-3.07-1.06-1.04,0-1.89.21-2.54.61-.65.41-1.16.97-1.54,1.67-.33.48-.8.73-1.4.73h-6.25c-.41,0-.73-.12-.95-.36s-.32-.53-.28-.87c0-.67.25-1.44.75-2.32.5-.87,1.28-1.74,2.32-2.6,1.04-.86,2.38-1.56,4.02-2.12,1.64-.56,3.61-.84,5.92-.84s4.49.28,6.2.84c1.71.56,3.1,1.34,4.16,2.35,1.06,1,1.85,2.19,2.37,3.55.52,1.36.78,2.86.78,4.5v16.98c0,.41-.14.75-.42,1.01s-.61.39-.98.39h-6.48c-.41,0-.75-.13-1.01-.39s-.39-.6-.39-1.01v-1.95c-.48.71-1.14,1.36-1.95,1.95-.82.6-1.78,1.07-2.88,1.42-1.1.35-2.37.53-3.83.53ZM189.78,70.78c1.08,0,2.06-.23,2.93-.7.88-.46,1.56-1.19,2.07-2.18s.75-2.22.75-3.71v-.78l-4.75.84c-1.75.3-3.02.75-3.83,1.37s-1.2,1.33-1.2,2.15c0,.63.19,1.17.56,1.62.37.45.86.79,1.45,1.03.59.24,1.26.36,2.01.36Z"/>
        <path class="cls-1" d="M121.15,117.14c-2.42,0-4.48-.27-6.17-.81-1.69-.54-3.07-1.2-4.13-1.98-1.06-.78-1.85-1.59-2.37-2.43s-.8-1.55-.84-2.15c-.04-.41.09-.75.39-1.03.3-.28.61-.42.95-.42h6.37c.11,0,.2.02.28.06.07.04.19.11.33.22.48.26.97.59,1.45.98.48.39,1.04.74,1.67,1.03.63.3,1.4.45,2.29.45,1.04,0,1.92-.2,2.62-.61.71-.41,1.06-1.02,1.06-1.84,0-.6-.17-1.09-.5-1.48-.33-.39-1.01-.77-2.04-1.14-1.02-.37-2.56-.74-4.61-1.12-1.94-.45-3.63-1.03-5.08-1.76-1.45-.73-2.57-1.67-3.35-2.85-.78-1.17-1.17-2.6-1.17-4.27,0-1.49.48-2.92,1.45-4.3.97-1.38,2.38-2.5,4.24-3.38,1.86-.87,4.15-1.31,6.87-1.31,2.16,0,4.03.25,5.61.75,1.58.5,2.92,1.14,4.02,1.93,1.1.78,1.93,1.58,2.49,2.4.56.82.86,1.56.89,2.23.04.37-.08.7-.33.98-.26.28-.56.42-.89.42h-5.81c-.15,0-.3-.03-.45-.08-.15-.06-.28-.12-.39-.2-.45-.22-.89-.52-1.34-.89-.45-.37-.97-.71-1.56-1-.6-.3-1.34-.45-2.23-.45-1,0-1.79.22-2.34.67-.56.45-.84,1.02-.84,1.73,0,.48.16.93.47,1.34.32.41.97.78,1.95,1.12s2.52.71,4.61,1.12c2.57.41,4.62,1.07,6.14,1.98,1.53.91,2.61,1.97,3.24,3.18.63,1.21.95,2.48.95,3.83,0,1.79-.53,3.37-1.59,4.75-1.06,1.38-2.63,2.45-4.72,3.21-2.08.76-4.62,1.14-7.59,1.14Z"/>
        <path class="cls-1" d="M153.48,117.14c-4.39,0-7.89-1.19-10.5-3.57-2.61-2.38-3.96-5.92-4.08-10.61v-1.95c.11-2.94.77-5.46,1.98-7.57,1.21-2.1,2.88-3.7,5.03-4.8,2.14-1.1,4.64-1.65,7.51-1.65,3.28,0,5.98.65,8.12,1.95,2.14,1.3,3.75,3.07,4.83,5.31,1.08,2.23,1.62,4.78,1.62,7.65v1.34c0,.41-.14.75-.42,1-.28.26-.61.39-.98.39h-17.87v.39c.04,1.08.22,2.07.56,2.96s.86,1.6,1.56,2.12,1.56.78,2.57.78c.74,0,1.37-.12,1.87-.36.5-.24.92-.52,1.26-.84s.59-.59.78-.81c.33-.37.6-.61.81-.7.2-.09.53-.14.98-.14h6.92c.37,0,.68.1.92.31.24.21.34.49.31.87-.04.63-.35,1.4-.95,2.29s-1.46,1.78-2.6,2.65-2.56,1.59-4.27,2.15c-1.71.56-3.71.84-5.98.84ZM148.74,99.1h9.44v-.11c0-1.19-.18-2.23-.53-3.13-.35-.89-.89-1.58-1.62-2.07-.73-.48-1.59-.73-2.6-.73s-1.85.24-2.54.73c-.69.48-1.22,1.17-1.59,2.07s-.56,1.94-.56,3.13v.11Z"/>
        <path class="cls-1" d="M186.6,117.14c-2.76,0-5.19-.5-7.32-1.51s-3.81-2.47-5.05-4.38c-1.25-1.92-1.93-4.22-2.04-6.9-.04-.6-.06-1.35-.06-2.26s.02-1.67.06-2.26c.11-2.72.78-5.04,2.01-6.95,1.23-1.92,2.91-3.38,5.05-4.38,2.14-1.01,4.59-1.51,7.34-1.51,2.57,0,4.76.36,6.59,1.09,1.82.73,3.31,1.63,4.47,2.71,1.15,1.08,2.02,2.19,2.6,3.32s.88,2.13.92,2.99c.04.37-.09.7-.39.98s-.63.42-1,.42h-7.09c-.41,0-.73-.09-.95-.28-.22-.19-.43-.47-.61-.84-.45-1.15-1.02-1.97-1.7-2.46-.69-.48-1.57-.73-2.65-.73-1.49,0-2.63.48-3.43,1.45-.8.97-1.24,2.46-1.31,4.47-.04,1.49-.04,2.81,0,3.96.07,2.05.51,3.54,1.31,4.47.8.93,1.94,1.4,3.43,1.4,1.15,0,2.07-.24,2.74-.73.67-.48,1.21-1.3,1.62-2.46.19-.37.39-.65.61-.84.22-.19.54-.28.95-.28h7.09c.37,0,.71.14,1,.42s.43.61.39.98c-.04.63-.22,1.37-.56,2.21-.33.84-.86,1.72-1.56,2.65-.71.93-1.63,1.8-2.76,2.6s-2.5,1.44-4.1,1.93-3.46.73-5.58.73Z"/>
        <path class="cls-1" d="M207.59,116.58c-.41,0-.75-.13-1-.39-.26-.26-.39-.6-.39-1.01v-26.25c0-.37.13-.7.39-.98.26-.28.59-.42,1-.42h6.42c.41,0,.74.14,1,.42.26.28.39.61.39.98v2.23c1-1.15,2.21-2.05,3.6-2.68,1.4-.63,2.97-.95,4.72-.95h2.46c.37,0,.7.13.98.39s.42.6.42,1v5.75c0,.37-.14.7-.42.98s-.61.42-.98.42h-5.42c-1.53,0-2.71.42-3.55,1.26-.84.84-1.26,2.02-1.26,3.55v14.3c0,.41-.14.75-.42,1.01s-.62.39-1.03.39h-6.92Z"/>
        <path class="cls-1" d="M244.68,117.14c-4.39,0-7.89-1.19-10.5-3.57-2.61-2.38-3.96-5.92-4.08-10.61v-1.95c.11-2.94.77-5.46,1.98-7.57,1.21-2.1,2.88-3.7,5.03-4.8,2.14-1.1,4.64-1.65,7.51-1.65,3.28,0,5.98.65,8.12,1.95,2.14,1.3,3.75,3.07,4.83,5.31,1.08,2.23,1.62,4.78,1.62,7.65v1.34c0,.41-.14.75-.42,1-.28.26-.61.39-.98.39h-17.87v.39c.04,1.08.22,2.07.56,2.96s.86,1.6,1.56,2.12,1.56.78,2.57.78c.74,0,1.37-.12,1.87-.36.5-.24.92-.52,1.26-.84s.59-.59.78-.81c.33-.37.6-.61.81-.7.2-.09.53-.14.98-.14h6.92c.37,0,.68.1.92.31.24.21.34.49.31.87-.04.63-.35,1.4-.95,2.29s-1.46,1.78-2.6,2.65-2.56,1.59-4.27,2.15c-1.71.56-3.71.84-5.98.84ZM239.93,99.1h9.44v-.11c0-1.19-.18-2.23-.53-3.13-.35-.89-.89-1.58-1.62-2.07-.73-.48-1.59-.73-2.6-.73s-1.85.24-2.54.73c-.69.48-1.22,1.17-1.59,2.07s-.56,1.94-.56,3.13v.11Z"/>
        <path class="cls-1" d="M279.19,116.58c-2.38,0-4.44-.38-6.17-1.14-1.73-.76-3.06-1.96-3.99-3.57s-1.4-3.71-1.4-6.28v-10.72h-4.36c-.41,0-.75-.13-1.03-.39-.28-.26-.42-.59-.42-1v-4.52c0-.41.14-.74.42-1,.28-.26.62-.39,1.03-.39h4.36v-9.21c0-.41.14-.74.42-1,.28-.26.6-.39.98-.39h6.48c.41,0,.74.13,1,.39.26.26.39.6.39,1v9.21h6.98c.41,0,.74.13,1,.39s.39.6.39,1v4.52c0,.41-.13.75-.39,1-.26.26-.6.39-1,.39h-6.98v9.94c0,1.27.24,2.27.73,3.02.48.75,1.3,1.12,2.46,1.12h4.3c.41,0,.74.13,1,.39.26.26.39.6.39,1v4.86c0,.41-.13.75-.39,1.01-.26.26-.6.39-1,.39h-5.19Z"/>
      </g>
    </g>
  </g>
</svg>